<?xml version="1.0" encoding="UTF-8"?><svg xmlns="http://www.w3.org/2000/svg" xmlns:xlink="http://www.w3.org/1999/xlink" fill-opacity="1" color-rendering="auto" color-interpolation="auto" text-rendering="auto" stroke="black" stroke-linecap="square" width="437" stroke-miterlimit="10" shape-rendering="auto" stroke-opacity="1" fill="black" stroke-dasharray="none" font-weight="normal" stroke-width="1" height="173" font-family="'Dialog'" font-style="normal" stroke-linejoin="miter" font-size="12px" stroke-dashoffset="0" image-rendering="auto">
  <!--Generated by ySVG 2.5-->
  <defs id="genericDefs"/>
  <g>
    <defs id="defs1">
      <clipPath clipPathUnits="userSpaceOnUse" id="clipPath1">
        <path d="M0 0 L437 0 L437 173 L0 173 L0 0 Z"/>
      </clipPath>
      <clipPath clipPathUnits="userSpaceOnUse" id="clipPath2">
        <path d="M-10 -10 L427 -10 L427 163 L-10 163 L-10 -10 Z"/>
      </clipPath>
      <clipPath clipPathUnits="userSpaceOnUse" id="clipPath3">
        <path d="M-10 -10.2554 L427 -10.2554 L427 162.7446 L-10 162.7446 L-10 -10.2554 Z"/>
      </clipPath>
      <clipPath clipPathUnits="userSpaceOnUse" id="clipPath4">
        <path d="M0 0 L0 24 L24 24 L24 0 Z"/>
      </clipPath>
      <clipPath clipPathUnits="userSpaceOnUse" id="clipPath5">
        <path d="M-10 -10.733 L427 -10.733 L427 162.267 L-10 162.267 L-10 -10.733 Z"/>
      </clipPath>
    </defs>
    <g fill="white" stroke="white">
      <path d="M12.1191 162 L12.1191 153.3281 L14.4805 153.3281 Q16.0508 153.3281 16.7363 153.8584 Q17.4219 154.3887 17.4219 155.6016 Q17.4219 156.9844 16.4844 157.7695 Q15.5469 158.5547 13.8828 158.5547 L13.3379 158.5547 L13.3379 162 ZM13.3379 157.623 L13.8359 157.623 Q14.9316 157.623 15.5293 157.1191 Q16.127 156.6152 16.127 155.6953 Q16.127 154.916 15.6582 154.582 Q15.1895 154.248 14.0938 154.248 L13.3379 154.248 ZM21.2773 162.1465 Q19.9121 162.1465 19.0977 161.2412 Q18.2832 160.3359 18.2832 158.8184 Q18.2832 157.2832 19.1006 156.3896 Q19.918 155.4961 21.3184 155.4961 Q22.7188 155.4961 23.5361 156.3896 Q24.3535 157.2832 24.3535 158.8066 Q24.3535 160.3652 23.5332 161.2559 Q22.7129 162.1465 21.2773 162.1465 ZM21.2949 161.2793 Q23.1289 161.2793 23.1289 158.8066 Q23.1289 156.3633 21.3184 156.3633 Q19.5137 156.3633 19.5137 158.8184 Q19.5137 161.2793 21.2949 161.2793 ZM26.8965 162 L25.0742 155.6367 L26.2051 155.6367 L27.5996 160.5645 L29.1055 155.6367 L30.2598 155.6367 L31.5781 160.5645 L33.1777 155.6367 L34.168 155.6367 L32.0938 162 L30.9336 162 L29.5859 157.0723 L28.0625 162 ZM40.0684 161.7949 Q38.9082 162.1465 38.082 162.1465 Q36.6758 162.1465 35.7881 161.2119 Q34.9004 160.2773 34.9004 158.7891 Q34.9004 157.3418 35.6826 156.416 Q36.4648 155.4902 37.6836 155.4902 Q38.8379 155.4902 39.4678 156.3105 Q40.0977 157.1309 40.0977 158.6426 L40.0918 159 L36.0781 159 Q36.3301 161.2676 38.2988 161.2676 Q39.0195 161.2676 40.0684 160.8809 ZM36.1309 158.1328 L38.9375 158.1328 Q38.9375 156.3574 37.6133 156.3574 Q36.2832 156.3574 36.1309 158.1328 ZM42.0898 162 L42.0898 155.6367 L43.2441 155.6367 L43.2441 156.832 Q43.9297 155.4961 45.2363 155.4961 Q45.4121 155.4961 45.6055 155.5254 L45.6055 156.6035 Q45.3066 156.5039 45.0781 156.5039 Q43.9824 156.5039 43.2441 157.8047 L43.2441 162 ZM51.6641 161.7949 Q50.5039 162.1465 49.6777 162.1465 Q48.2715 162.1465 47.3838 161.2119 Q46.4961 160.2773 46.4961 158.7891 Q46.4961 157.3418 47.2783 156.416 Q48.0605 155.4902 49.2793 155.4902 Q50.4336 155.4902 51.0635 156.3105 Q51.6934 157.1309 51.6934 158.6426 L51.6875 159 L47.6738 159 Q47.9258 161.2676 49.8945 161.2676 Q50.6152 161.2676 51.6641 160.8809 ZM47.7266 158.1328 L50.5332 158.1328 Q50.5332 156.3574 49.209 156.3574 Q47.8789 156.3574 47.7266 158.1328 ZM57.7695 162 L57.7695 160.8047 Q57.0664 162.1465 55.6484 162.1465 Q54.5 162.1465 53.8408 161.3086 Q53.1816 160.4707 53.1816 159.0176 Q53.1816 157.4297 53.9287 156.4629 Q54.6758 155.4961 55.8945 155.4961 Q57.0254 155.4961 57.7695 156.3633 L57.7695 152.748 L58.9297 152.748 L58.9297 162 ZM57.7695 157.1543 Q56.873 156.3633 56.0703 156.3633 Q54.4121 156.3633 54.4121 158.9004 Q54.4121 161.1328 55.8887 161.1328 Q56.8496 161.1328 57.7695 160.084 ZM65.0352 162.0703 L65.0352 152.748 L66.1895 152.748 L66.1895 156.832 Q66.8984 155.4961 68.3164 155.4961 Q69.4648 155.4961 70.124 156.334 Q70.7832 157.1719 70.7832 158.625 Q70.7832 160.207 70.0361 161.1768 Q69.2891 162.1465 68.0703 162.1465 Q66.9395 162.1465 66.1895 161.2793 L66.0488 162.0703 ZM66.1895 160.4824 Q67.0801 161.2793 67.8887 161.2793 Q69.5527 161.2793 69.5527 158.7422 Q69.5527 156.5039 68.0762 156.5039 Q67.1094 156.5039 66.1895 157.5527 ZM72.957 164.3145 L73.9883 162 L71.5273 155.6367 L72.7754 155.6367 L74.5977 160.4297 L76.543 155.6367 L77.6328 155.6367 L74.1582 164.3145 ZM83.0234 164.3145 L84.0547 162 L81.5938 155.6367 L82.8418 155.6367 L84.6641 160.4297 L86.6094 155.6367 L87.6992 155.6367 L84.2246 164.3145 ZM88.8887 162 L88.8887 153.3281 L93.7344 153.3281 L93.7344 154.248 L90.1191 154.248 L90.1191 157.1543 L93.1543 157.1543 L93.1543 158.0625 L90.1191 158.0625 L90.1191 162 ZM95.3574 162 L95.3574 155.6367 L96.5117 155.6367 L96.5117 162 ZM95.3574 154.4824 L95.3574 153.3281 L96.5117 153.3281 L96.5117 154.4824 ZM98.8262 162 L98.8262 152.748 L99.9805 152.748 L99.9805 162 ZM106.959 161.7949 Q105.7988 162.1465 104.9727 162.1465 Q103.5664 162.1465 102.6787 161.2119 Q101.791 160.2773 101.791 158.7891 Q101.791 157.3418 102.5732 156.416 Q103.3555 155.4902 104.5742 155.4902 Q105.7285 155.4902 106.3584 156.3105 Q106.9883 157.1309 106.9883 158.6426 L106.9824 159 L102.9688 159 Q103.2207 161.2676 105.1895 161.2676 Q105.9102 161.2676 106.959 160.8809 ZM103.0215 158.1328 L105.8281 158.1328 Q105.8281 156.3574 104.5039 156.3574 Q103.1738 156.3574 103.0215 158.1328 ZM110.668 162.1465 Q109.877 162.1465 108.7461 161.7773 L108.7461 160.7168 Q109.877 161.2793 110.7148 161.2793 Q111.2129 161.2793 111.541 161.0098 Q111.8691 160.7402 111.8691 160.3359 Q111.8691 159.7441 110.9492 159.3574 L110.2754 159.0703 Q108.7812 158.4492 108.7812 157.2832 Q108.7812 156.4512 109.3701 155.9736 Q109.959 155.4961 110.9844 155.4961 Q111.5176 155.4961 112.3027 155.6426 L112.543 155.6895 L112.543 156.6504 Q111.5762 156.3633 111.0078 156.3633 Q109.8945 156.3633 109.8945 157.1719 Q109.8945 157.6934 110.7383 158.0508 L111.2949 158.2852 Q112.2383 158.6836 112.6309 159.126 Q113.0234 159.5684 113.0234 160.2305 Q113.0234 161.0684 112.3613 161.6074 Q111.6992 162.1465 110.668 162.1465 Z" stroke="none" clip-path="url(#clipPath1)"/>
    </g>
    <g fill="silver" stroke="silver">
      <path d="M11.1191 161 L11.1191 152.3281 L13.4805 152.3281 Q15.0508 152.3281 15.7363 152.8584 Q16.4219 153.3887 16.4219 154.6016 Q16.4219 155.9844 15.4844 156.7695 Q14.5469 157.5547 12.8828 157.5547 L12.3379 157.5547 L12.3379 161 ZM12.3379 156.623 L12.8359 156.623 Q13.9316 156.623 14.5293 156.1191 Q15.127 155.6152 15.127 154.6953 Q15.127 153.916 14.6582 153.582 Q14.1895 153.248 13.0938 153.248 L12.3379 153.248 ZM20.2773 161.1465 Q18.9121 161.1465 18.0977 160.2412 Q17.2832 159.3359 17.2832 157.8184 Q17.2832 156.2832 18.1006 155.3896 Q18.918 154.4961 20.3184 154.4961 Q21.7188 154.4961 22.5361 155.3896 Q23.3535 156.2832 23.3535 157.8066 Q23.3535 159.3652 22.5332 160.2559 Q21.7129 161.1465 20.2773 161.1465 ZM20.2949 160.2793 Q22.1289 160.2793 22.1289 157.8066 Q22.1289 155.3633 20.3184 155.3633 Q18.5137 155.3633 18.5137 157.8184 Q18.5137 160.2793 20.2949 160.2793 ZM25.8965 161 L24.0742 154.6367 L25.2051 154.6367 L26.5996 159.5645 L28.1055 154.6367 L29.2598 154.6367 L30.5781 159.5645 L32.1777 154.6367 L33.168 154.6367 L31.0938 161 L29.9336 161 L28.5859 156.0723 L27.0625 161 ZM39.0684 160.7949 Q37.9082 161.1465 37.082 161.1465 Q35.6758 161.1465 34.7881 160.2119 Q33.9004 159.2773 33.9004 157.7891 Q33.9004 156.3418 34.6826 155.416 Q35.4648 154.4902 36.6836 154.4902 Q37.8379 154.4902 38.4678 155.3105 Q39.0977 156.1309 39.0977 157.6426 L39.0918 158 L35.0781 158 Q35.3301 160.2676 37.2988 160.2676 Q38.0195 160.2676 39.0684 159.8809 ZM35.1309 157.1328 L37.9375 157.1328 Q37.9375 155.3574 36.6133 155.3574 Q35.2832 155.3574 35.1309 157.1328 ZM41.0898 161 L41.0898 154.6367 L42.2441 154.6367 L42.2441 155.832 Q42.9297 154.4961 44.2363 154.4961 Q44.4121 154.4961 44.6055 154.5254 L44.6055 155.6035 Q44.3066 155.5039 44.0781 155.5039 Q42.9824 155.5039 42.2441 156.8047 L42.2441 161 ZM50.6641 160.7949 Q49.5039 161.1465 48.6777 161.1465 Q47.2715 161.1465 46.3838 160.2119 Q45.4961 159.2773 45.4961 157.7891 Q45.4961 156.3418 46.2783 155.416 Q47.0605 154.4902 48.2793 154.4902 Q49.4336 154.4902 50.0635 155.3105 Q50.6934 156.1309 50.6934 157.6426 L50.6875 158 L46.6738 158 Q46.9258 160.2676 48.8945 160.2676 Q49.6152 160.2676 50.6641 159.8809 ZM46.7266 157.1328 L49.5332 157.1328 Q49.5332 155.3574 48.209 155.3574 Q46.8789 155.3574 46.7266 157.1328 ZM56.7695 161 L56.7695 159.8047 Q56.0664 161.1465 54.6484 161.1465 Q53.5 161.1465 52.8408 160.3086 Q52.1816 159.4707 52.1816 158.0176 Q52.1816 156.4297 52.9287 155.4629 Q53.6758 154.4961 54.8945 154.4961 Q56.0254 154.4961 56.7695 155.3633 L56.7695 151.748 L57.9297 151.748 L57.9297 161 ZM56.7695 156.1543 Q55.873 155.3633 55.0703 155.3633 Q53.4121 155.3633 53.4121 157.9004 Q53.4121 160.1328 54.8887 160.1328 Q55.8496 160.1328 56.7695 159.084 ZM64.0352 161.0703 L64.0352 151.748 L65.1895 151.748 L65.1895 155.832 Q65.8984 154.4961 67.3164 154.4961 Q68.4648 154.4961 69.124 155.334 Q69.7832 156.1719 69.7832 157.625 Q69.7832 159.207 69.0361 160.1768 Q68.2891 161.1465 67.0703 161.1465 Q65.9395 161.1465 65.1895 160.2793 L65.0488 161.0703 ZM65.1895 159.4824 Q66.0801 160.2793 66.8887 160.2793 Q68.5527 160.2793 68.5527 157.7422 Q68.5527 155.5039 67.0762 155.5039 Q66.1094 155.5039 65.1895 156.5527 ZM71.957 163.3145 L72.9883 161 L70.5273 154.6367 L71.7754 154.6367 L73.5977 159.4297 L75.543 154.6367 L76.6328 154.6367 L73.1582 163.3145 ZM82.0234 163.3145 L83.0547 161 L80.5938 154.6367 L81.8418 154.6367 L83.6641 159.4297 L85.6094 154.6367 L86.6992 154.6367 L83.2246 163.3145 ZM87.8887 161 L87.8887 152.3281 L92.7344 152.3281 L92.7344 153.248 L89.1191 153.248 L89.1191 156.1543 L92.1543 156.1543 L92.1543 157.0625 L89.1191 157.0625 L89.1191 161 ZM94.3574 161 L94.3574 154.6367 L95.5117 154.6367 L95.5117 161 ZM94.3574 153.4824 L94.3574 152.3281 L95.5117 152.3281 L95.5117 153.4824 ZM97.8262 161 L97.8262 151.748 L98.9805 151.748 L98.9805 161 ZM105.959 160.7949 Q104.7988 161.1465 103.9727 161.1465 Q102.5664 161.1465 101.6787 160.2119 Q100.791 159.2773 100.791 157.7891 Q100.791 156.3418 101.5732 155.416 Q102.3555 154.4902 103.5742 154.4902 Q104.7285 154.4902 105.3584 155.3105 Q105.9883 156.1309 105.9883 157.6426 L105.9824 158 L101.9688 158 Q102.2207 160.2676 104.1895 160.2676 Q104.9102 160.2676 105.959 159.8809 ZM102.0215 157.1328 L104.8281 157.1328 Q104.8281 155.3574 103.5039 155.3574 Q102.1738 155.3574 102.0215 157.1328 ZM109.668 161.1465 Q108.877 161.1465 107.7461 160.7773 L107.7461 159.7168 Q108.877 160.2793 109.7148 160.2793 Q110.2129 160.2793 110.541 160.0098 Q110.8691 159.7402 110.8691 159.3359 Q110.8691 158.7441 109.9492 158.3574 L109.2754 158.0703 Q107.7812 157.4492 107.7812 156.2832 Q107.7812 155.4512 108.3701 154.9736 Q108.959 154.4961 109.9844 154.4961 Q110.5176 154.4961 111.3027 154.6426 L111.543 154.6895 L111.543 155.6504 Q110.5762 155.3633 110.0078 155.3633 Q108.8945 155.3633 108.8945 156.1719 Q108.8945 156.6934 109.7383 157.0508 L110.2949 157.2852 Q111.2383 157.6836 111.6309 158.126 Q112.0234 158.5684 112.0234 159.2305 Q112.0234 160.0684 111.3613 160.6074 Q110.6992 161.1465 109.668 161.1465 Z" stroke="none" clip-path="url(#clipPath1)"/>
    </g>
    <g fill="rgb(255,255,204)" transform="matrix(1,0,0,1,10,10)" stroke="rgb(255,255,204)">
      <rect x="283" width="134" height="70.7777" y="20.5224" clip-path="url(#clipPath2)" stroke="none"/>
    </g>
    <g fill="gray" stroke-miterlimit="1.45" transform="matrix(1,0,0,1,10,10)" stroke-linecap="butt" stroke="gray">
      <rect fill="none" x="283" width="134" height="70.7777" y="20.5224" clip-path="url(#clipPath2)"/>
    </g>
    <g stroke-miterlimit="1.45" font-size="13px" font-family="'Inter'" transform="matrix(1,0,0,1,10,10)" stroke-linecap="butt">
      <text x="330.5" xml:space="preserve" y="39.1162" clip-path="url(#clipPath2)" stroke="none">genes</text>
    </g>
    <g fill="gray" transform="matrix(1,0,0,1,10,10)" stroke="gray">
      <line y2="46" fill="none" x1="284" clip-path="url(#clipPath2)" x2="416" y1="46"/>
    </g>
    <g stroke-linecap="round" transform="matrix(0.6667,0,0,0.6667,297,59.2554)" fill="rgb(110,110,110)" image-rendering="optimizeQuality" stroke-linejoin="round" stroke="rgb(110,110,110)" stroke-width="2" stroke-miterlimit="4">
      <path fill="none" d="M12.4 2.7 C13.3 1.8 14.9 1.8 15.8 2.7 L21.3 8.2 C22.2 9.1 22.2 10.7 21.3 11.6 L17.6 15.3 C16.7 16.2 15.1 16.2 14.2 15.3 L8.7 9.8 C7.8 8.9 7.8 7.3 8.7 6.4 Z" clip-path="url(#clipPath4)"/>
    </g>
    <g stroke-linecap="round" transform="matrix(0.6667,0,0,0.6667,297,59.2554)" fill="rgb(110,110,110)" image-rendering="optimizeQuality" stroke-linejoin="round" stroke="rgb(110,110,110)" stroke-width="2" stroke-miterlimit="4">
      <path fill="none" d="M14 7 L17 10" clip-path="url(#clipPath4)"/>
    </g>
    <g stroke-linecap="round" transform="matrix(0.6667,0,0,0.6667,297,59.2554)" fill="rgb(110,110,110)" image-rendering="optimizeQuality" stroke-linejoin="round" stroke="rgb(110,110,110)" stroke-width="2" stroke-miterlimit="4">
      <path fill="none" d="M9.4 10.6 L2 18 L2 21 C2 21.6 2.4 22 3 22 L7 22 L7 19 L10 19 L10 16 L12 16 L13.4 14.6" clip-path="url(#clipPath4)"/>
    </g>
    <g stroke-miterlimit="1.45" font-weight="bold" font-family="'Inter'" transform="matrix(1,0,0,1,10,10)" stroke-linecap="butt">
      <text x="309" xml:space="preserve" y="63.8801" clip-path="url(#clipPath2)" stroke="none">gene_id</text>
    </g>
    <g stroke-miterlimit="1.45" font-family="'Inter'" transform="matrix(1,0,0,1,10,10)" stroke-linecap="butt">
      <text x="372" xml:space="preserve" y="63.8801" clip-path="url(#clipPath2)" stroke="none">TEXT</text>
      <text x="309" xml:space="preserve" y="84.4025" clip-path="url(#clipPath2)" font-weight="bold" stroke="none">sequence</text>
      <text x="372" xml:space="preserve" y="84.4025" clip-path="url(#clipPath2)" stroke="none">TEXT</text>
    </g>
    <g fill="rgb(255,255,204)" transform="matrix(1,0,0,1,10,10)" stroke="rgb(255,255,204)">
      <rect x="0" width="223" height="152.8672" y="0" clip-path="url(#clipPath2)" stroke="none"/>
    </g>
    <g fill="gray" stroke-miterlimit="1.45" transform="matrix(1,0,0,1,10,10)" stroke-linecap="butt" stroke="gray">
      <rect fill="none" x="0" width="223" height="152.8672" y="0" clip-path="url(#clipPath2)"/>
    </g>
    <g stroke-miterlimit="1.45" font-size="13px" font-family="'Inter'" transform="matrix(1,0,0,1,10,10)" stroke-linecap="butt">
      <text x="88" xml:space="preserve" y="18.5938" clip-path="url(#clipPath2)" stroke="none">primers</text>
    </g>
    <g fill="gray" transform="matrix(1,0,0,1,10,10)" stroke="gray">
      <line y2="25" fill="none" x1="1" clip-path="url(#clipPath2)" x2="222" y1="25"/>
    </g>
    <g stroke-linecap="round" transform="matrix(0.6667,0,0,0.6667,14,38.733)" fill="rgb(110,110,110)" image-rendering="optimizeQuality" stroke-linejoin="round" stroke="rgb(110,110,110)" stroke-width="2" stroke-miterlimit="4">
      <path fill="none" d="M12.4 2.7 C13.3 1.8 14.9 1.8 15.8 2.7 L21.3 8.2 C22.2 9.1 22.2 10.7 21.3 11.6 L17.6 15.3 C16.7 16.2 15.1 16.2 14.2 15.3 L8.7 9.8 C7.8 8.9 7.8 7.3 8.7 6.4 Z" clip-path="url(#clipPath4)"/>
    </g>
    <g stroke-linecap="round" transform="matrix(0.6667,0,0,0.6667,14,38.733)" fill="rgb(110,110,110)" image-rendering="optimizeQuality" stroke-linejoin="round" stroke="rgb(110,110,110)" stroke-width="2" stroke-miterlimit="4">
      <path fill="none" d="M14 7 L17 10" clip-path="url(#clipPath4)"/>
    </g>
    <g stroke-linecap="round" transform="matrix(0.6667,0,0,0.6667,14,38.733)" fill="rgb(110,110,110)" image-rendering="optimizeQuality" stroke-linejoin="round" stroke="rgb(110,110,110)" stroke-width="2" stroke-miterlimit="4">
      <path fill="none" d="M9.4 10.6 L2 18 L2 21 C2 21.6 2.4 22 3 22 L7 22 L7 19 L10 19 L10 16 L12 16 L13.4 14.6" clip-path="url(#clipPath4)"/>
    </g>
    <g stroke-miterlimit="1.45" font-weight="bold" font-family="'Inter'" transform="matrix(1,0,0,1,10,10)" stroke-linecap="butt">
      <text x="26" xml:space="preserve" y="43.3577" clip-path="url(#clipPath2)" stroke="none">primers_id</text>
    </g>
    <g stroke-miterlimit="1.45" font-family="'Inter'" transform="matrix(1,0,0,1,10,10)" stroke-linecap="butt">
      <text x="142" xml:space="preserve" y="43.3577" clip-path="url(#clipPath2)" stroke="none">INTEGER</text>
      <text x="26" xml:space="preserve" y="63.8801" clip-path="url(#clipPath2)" font-weight="bold" stroke="none">gene_id</text>
      <text x="142" xml:space="preserve" y="63.8801" clip-path="url(#clipPath2)" stroke="none">TEXT</text>
    </g>
    <g stroke-linecap="round" transform="matrix(0.6667,0,0,0.6667,211,59.2554)" fill="rgb(110,110,110)" image-rendering="optimizeQuality" stroke-linejoin="round" stroke="rgb(110,110,110)" stroke-width="2" stroke-miterlimit="4">
      <path fill="none" d="M7 7 L17 7 L17 17" clip-path="url(#clipPath4)"/>
    </g>
    <g stroke-linecap="round" transform="matrix(0.6667,0,0,0.6667,211,59.2554)" fill="rgb(110,110,110)" image-rendering="optimizeQuality" stroke-linejoin="round" stroke="rgb(110,110,110)" stroke-width="2" stroke-miterlimit="4">
      <path fill="none" d="M7 17 L17 7" clip-path="url(#clipPath4)"/>
    </g>
    <g stroke-miterlimit="1.45" font-weight="bold" font-family="'Inter'" transform="matrix(1,0,0,1,10,10)" stroke-linecap="butt">
      <text x="26" xml:space="preserve" y="84.4025" clip-path="url(#clipPath2)" stroke="none">forward_sequence</text>
    </g>
    <g stroke-miterlimit="1.45" font-family="'Inter'" transform="matrix(1,0,0,1,10,10)" stroke-linecap="butt">
      <text x="142" xml:space="preserve" y="84.4025" clip-path="url(#clipPath2)" stroke="none">TEXT</text>
      <text x="26" xml:space="preserve" y="104.9248" clip-path="url(#clipPath2)" font-weight="bold" stroke="none">reverse_sequence</text>
      <text x="142" xml:space="preserve" y="104.9248" clip-path="url(#clipPath2)" stroke="none">TEXT</text>
      <text x="26" xml:space="preserve" y="125.4472" clip-path="url(#clipPath2)" font-weight="bold" stroke="none">forward_tm</text>
      <text x="142" xml:space="preserve" y="125.4472" clip-path="url(#clipPath2)" stroke="none">FLOAT</text>
      <text x="26" xml:space="preserve" y="145.9695" clip-path="url(#clipPath2)" font-weight="bold" stroke="none">reverse_tm</text>
      <text x="142" xml:space="preserve" y="145.9695" clip-path="url(#clipPath2)" stroke="none">FLOAT</text>
    </g>
    <g fill="gray" stroke-miterlimit="1.45" transform="matrix(1,0,0,1,10,10)" stroke-linecap="butt" stroke="gray">
      <path fill="none" d="M223.0293 58.5166 L274.9707 58.5166" clip-path="url(#clipPath2)"/>
    </g>
    <g fill="gray" stroke-miterlimit="1.45" transform="matrix(1,0,0,1,10,10)" stroke-linecap="butt" stroke="gray">
      <path d="M282.9707 58.5166 L270.9707 53.5166 L273.9707 58.5166 L270.9707 63.5166 Z" stroke="none" clip-path="url(#clipPath2)"/>
    </g>
  </g>
</svg>
